<svg aria-hidden="true" style="position: absolute; width: 0; height: 0; overflow: hidden;" version="1.1"
    xmlns="http://www.w3.org/2000/svg"
    xmlns:xlink="http://www.w3.org/1999/xlink">
    <defs>
        <symbol id="icon-send" viewBox="0 0 32 32">
            <path fill="#0d5c63" style="fill: var(--color1, #0d5c63)" d="M30.805 0.524c-0.175-0.182-0.397-0.307-0.639-0.362s-0.494-0.037-0.726 0.051l-28.601 10.816c-0.247 0.097-0.459 0.27-0.609 0.496s-0.23 0.494-0.23 0.768c0 0.274 0.080 0.542 0.23 0.768s0.362 0.399 0.609 0.496l12.48 5.192 4.992 12.98c0.094 0.245 0.255 0.457 0.462 0.608s0.454 0.236 0.708 0.244c0.263-0.006 0.518-0.094 0.731-0.253s0.376-0.382 0.465-0.639l10.4-29.745c0.089-0.239 0.11-0.5 0.062-0.751s-0.164-0.483-0.335-0.669zM19.482 27.443l-3.627-9.464 6.227-6.476-1.833-1.906-6.279 6.53-9.048-3.826 22.79-8.558-8.229 23.701z"></path>
        </symbol>
        <symbol id="icon-icon-map" viewBox="0 0 26 32">
            <path fill="#fff" style="fill: var(--color2, #fff)" d="M11.914 31.703c0.272 0.193 0.597 0.297 0.931 0.297s0.659-0.104 0.931-0.297c0.488-0.344 11.96-8.598 11.914-18.903 0-7.058-5.763-12.8-12.845-12.8s-12.845 5.742-12.845 12.792c-0.047 10.312 11.426 18.567 11.914 18.911zM12.845 3.2c5.313 0 9.634 4.306 9.634 9.608 0.034 7.101-7.045 13.477-9.634 15.568-2.587-2.093-9.667-8.471-9.634-15.576 0-5.294 4.321-9.6 9.634-9.6z"></path>
        </symbol>
        <symbol id="icon-tel" viewBox="0 0 32 32">
            <path fill="#0d5c63" style="fill: var(--color1, #0d5c63)" d="M24.857 17.331c-0.156-0.157-0.342-0.281-0.546-0.365s-0.423-0.128-0.644-0.128c-0.221 0-0.44 0.044-0.644 0.128s-0.39 0.209-0.546 0.365l-2.684 2.684c-1.244-0.37-3.566-1.212-5.038-2.684s-2.313-3.793-2.684-5.038l2.684-2.684c0.156-0.156 0.281-0.342 0.365-0.546s0.128-0.423 0.128-0.644c0-0.221-0.044-0.44-0.128-0.644s-0.209-0.39-0.365-0.546l-6.735-6.735c-0.156-0.156-0.342-0.281-0.546-0.365s-0.423-0.128-0.644-0.128c-0.221 0-0.44 0.044-0.644 0.128s-0.39 0.209-0.546 0.365l-4.566 4.566c-0.64 0.64-1 1.519-0.987 2.416 0.039 2.398 0.673 10.725 7.237 17.289s14.891 7.196 17.29 7.237h0.047c0.889 0 1.729-0.35 2.366-0.987l4.566-4.566c0.157-0.156 0.281-0.342 0.365-0.546s0.128-0.423 0.128-0.644c0-0.221-0.044-0.44-0.128-0.644s-0.209-0.39-0.365-0.546l-6.735-6.737zM24.643 28.632c-2.101-0.035-9.291-0.599-14.94-6.25-5.667-5.667-6.216-12.882-6.25-14.941l3.376-3.376 4.354 4.354-2.177 2.177c-0.198 0.198-0.343 0.442-0.423 0.71s-0.092 0.552-0.035 0.826c0.040 0.194 1.029 4.785 3.824 7.58s7.387 3.783 7.58 3.824c0.274 0.059 0.558 0.048 0.826-0.032s0.512-0.226 0.709-0.424l2.179-2.177 4.354 4.354-3.378 3.376z"></path>
        </symbol>
        <symbol id="icon-head" viewBox="0 0 34 32">
            <path d="M29.776 12.345c-1.050 0-1.974 0.436-2.653 1.118-2.499-1.736-5.865-2.854-9.596-2.973l1.939-8.773 6.173 1.392c0 1.518 1.232 2.756 2.744 2.756 1.54 0 2.779-1.272 2.779-2.791s-1.232-2.791-2.779-2.791c-1.078 0-2.009 0.654-2.471 1.546l-6.817-1.518c-0.343-0.091-0.679 0.155-0.77 0.499l-2.128 9.672c-3.702 0.155-7.034 1.272-9.54 3.009-0.679-0.71-1.638-1.146-2.688-1.146-3.891 0-5.165 5.244-1.603 7.036-0.126 0.555-0.182 1.146-0.182 1.736 0 5.891 6.607 10.663 14.719 10.663 8.147 0 14.754-4.773 14.754-10.663 0-0.59-0.063-1.209-0.217-1.764 3.492-1.8 2.205-7.008-1.666-7.008zM8.016 19.754c0-1.546 1.232-2.791 2.779-2.791 1.512 0 2.744 1.237 2.744 2.791 0 1.518-1.232 2.756-2.744 2.756-1.54 0.007-2.779-1.237-2.779-2.756zM23.015 26.326c-2.548 2.559-9.736 2.559-12.283 0-0.28-0.246-0.28-0.682 0-0.963 0.245-0.246 0.679-0.246 0.924 0 1.946 2.003 8.399 2.039 10.428 0 0.245-0.246 0.679-0.246 0.924 0 0.287 0.281 0.287 0.717 0.007 0.963zM22.959 22.516c-1.512 0-2.744-1.237-2.744-2.756 0-1.546 1.232-2.791 2.744-2.791 1.54 0 2.779 1.237 2.779 2.791-0.007 1.511-1.239 2.756-2.779 2.756z"></path>
        </symbol>
        <symbol id="icon-aws" viewBox="0 0 53 32">
            <path d="M15.181 11.677c-0.059 1.848 0.872 2.666 0.895 3.186-0.011 0.106-0.047 0.207-0.106 0.296s-0.138 0.163-0.231 0.215l-1.053 0.731c-0.136 0.095-0.297 0.149-0.463 0.157-0.035-0.002-0.674 0.149-1.685-2.089-0.617 0.764-1.402 1.377-2.295 1.794s-1.87 0.625-2.857 0.609c-1.34 0.073-4.97-0.754-4.783-4.586-0.131-3.123 2.803-5.063 5.836-4.899 0.584 0.002 1.777 0.030 3.866 0.512v-1.274c0.221-2.159-1.21-3.834-3.687-3.582-0.197 0.001-1.596-0.041-3.772 0.825-0.606 0.276-0.683 0.23-0.885 0.23-0.61 0-0.359-1.752-0.242-1.974 0.429-0.522 2.951-1.497 5.426-1.483 1.655-0.145 3.301 0.361 4.582 1.41 0.521 0.578 0.918 1.254 1.168 1.988s0.347 1.511 0.286 2.284l-0.001 5.653zM8.070 14.319c2.668-0.038 3.798-1.629 4.056-2.486 0.202-0.82 0.169-1.339 0.169-2.235-0.796-0.189-1.941-0.396-3.255-0.397-1.247-0.093-3.523 0.459-3.434 2.632-0.102 1.37 0.915 2.562 2.465 2.487zM22.133 16.2c-0.647 0.059-0.948-0.397-1.043-0.846l-4.098-13.433c-0.080-0.227-0.133-0.461-0.158-0.7-0.015-0.099 0.010-0.199 0.069-0.279s0.149-0.134 0.248-0.149c0.020-0.003-0.175 0 1.831 0 0.722-0.072 0.958 0.492 1.033 0.846l2.939 11.49 2.728-11.49c0.044-0.263 0.242-0.903 1.053-0.835h1.412c0.179-0.015 0.914-0.041 1.043 0.846l2.75 11.637 3.034-11.637c0.039-0.178 0.224-0.928 1.043-0.846h1.623c0.070-0.011 0.506-0.066 0.432 0.7-0.035 0.151 0.281-0.87-4.34 13.861-0.095 0.45-0.397 0.905-1.043 0.846h-1.538c-0.9 0.094-1.029-0.788-1.043-0.877l-2.729-11.188-2.697 11.176c-0.013 0.089-0.142 0.971-1.043 0.877l-1.506 0.001zM44.636 16.659c-0.484 0.001-2.791-0.024-4.72-1.003-0.192-0.081-0.356-0.216-0.47-0.389s-0.174-0.376-0.172-0.583v-0.877c0-0.689 0.51-0.563 0.727-0.48 0.826 0.331 1.356 0.582 2.371 0.783 3.016 0.614 4.342-0.188 4.667-0.365 1.082-0.637 1.168-2.095 0.432-2.851-0.862-0.717-1.274-0.744-4.372-1.713-0.382-0.105-3.596-1.11-3.603-4.272-0.050-2.304 2.061-4.583 5.72-4.565 1.043-0.001 3.82 0.337 4.572 1.274 0.111 0.171 0.166 0.371 0.158 0.574v0.825c0 0.362-0.133 0.543-0.401 0.543-0.634-0.070-1.76-0.911-4.045-0.877-0.567-0.029-3.282 0.074-3.16 2.037-0.035 1.547 2.19 2.127 2.444 2.194 3 0.895 4.003 1.043 5.194 2.413 1.41 1.815 0.65 3.941 0.358 4.523-1.57 3.059-5.63 2.81-5.699 2.808zM47.944 25.214c-5.762 4.22-14.127 6.466-21.269 6.466-9.637 0.063-18.949-3.45-26.106-9.85-0.537-0.481-0.063-1.139 0.59-0.773 7.939 4.503 16.928 6.869 26.074 6.863 6.83-0.036 13.586-1.41 19.879-4.043 0.969-0.408 1.791 0.636 0.833 1.336zM50.346 22.498c-0.737-0.94-4.878-0.439-6.732-0.219-0.559 0.063-0.653-0.418-0.147-0.773 3.297-2.298 8.712-1.64 9.334-0.867 0.621 0.773-0.169 6.152-3.255 8.722-0.474 0.397-0.927 0.188-0.717-0.335 0.694-1.734 2.253-5.588 1.516-6.528z"></path>
        </symbol>
        <symbol id="icon-sprite" viewBox="0 0 77 32">
            <path d="M19.762 2.823l-5.186 1.089-0.024 16.859c0 3.114 2.371 5.126 5.521 5.126 1.749 0 3.030-0.32 3.737-0.698v-4.002c-0.683 0.272-4.036 1.243-4.036-1.859v-7.482h4.036v-4.475h-4.036l-0.012-4.558zM30.433 8.932l-0.323-1.551h-4.599v18.138h5.306v-12.206c1.258-1.634 3.377-1.314 4.060-1.101v-4.83c-0.719-0.249-3.198-0.71-4.443 1.551zM41.488 0.372l-5.342 1.125v4.286l5.342-1.125v-4.286zM5.378 12.721c0-0.817 0.695-1.137 1.809-1.148 1.617 0 3.677 0.485 5.294 1.35v-4.949c-1.761-0.687-3.521-0.959-5.282-0.959-4.312 0-7.186 2.226-7.186 5.943 0 5.825 8.084 4.878 8.084 7.388 0 0.971-0.85 1.291-2.036 1.291-1.761 0-4.036-0.722-5.821-1.681v4.736c1.976 0.841 3.976 1.196 5.809 1.196 4.419 0 7.462-1.871 7.462-5.659 0-6.263-8.132-5.138-8.132-7.506zM76.652 16.663c0-5.387-2.635-9.637-7.689-9.637s-8.132 4.25-8.132 9.602c0 6.334 3.629 9.258 8.803 9.258 2.539 0 4.443-0.568 5.893-1.362v-3.954c-1.449 0.722-3.114 1.16-5.222 1.16-2.072 0-3.892-0.722-4.132-3.185h10.408c0.024-0.272 0.072-1.373 0.072-1.883zM66.124 14.674c0-2.368 1.473-3.362 2.803-3.362 1.305 0 2.695 0.995 2.695 3.362h-5.497zM52.602 7.026c-2.084 0-3.425 0.971-4.168 1.646l-0.275-1.302h-4.683v24.247l5.318-1.113 0.012-5.943c0.767 0.556 1.904 1.326 3.761 1.326 3.809 0 7.282-2.747 7.282-9.424 0.012-6.109-3.509-9.436-7.246-9.436zM51.333 21.529c-1.246 0-1.988-0.45-2.503-0.995l-0.036-7.814c0.551-0.604 1.317-1.042 2.539-1.042 1.94 0 3.282 2.155 3.282 4.901 0.012 2.83-1.305 4.949-3.282 4.949zM36.158 25.519h5.342v-18.138h-5.342v18.138z"></path>
        </symbol>
        <symbol id="icon-leaf" viewBox="0 0 44 32">
            <path d="M43.52 0.062c-5.494 3.705-6.079 6.393-6.555 7.216-0.456 0.843-0.796 4.168-1.584 5.778-0.796 1.631-3.686 2.917-4.495 3.456-0.796 0.539-1.924 2.633-2.849 4.437-7.351-0.304-11.383 2.682-17.626 6.469 1.999-0.67 2.944-1.154 2.944-1.154 6.406-2.488 9.472-4.721 19.115-3.4 0.075 0 0.129 0.041 0.19 0.055 0.265 0.152 0.36 0.477 0.211 0.746l-3.665 6.621c-0.17 0.325-0.53 0.498-0.891 0.422-8.622-1.645-15.429 1.196-21.685 1.286-4.991 0.076-6.63-2.315-6.63-2.426 0-0.076 0.041-0.117 0.116-0.117 0 0 2.604 0 7.011-1.057 5.005-9.697 9.466-13.090 14.321-13.090 0 0 4.876 0 6.161 4.278 1.55-2.744 1.924-3.4 1.924-3.4 0.36-0.65 2.38-5.336 5.875-9.773 3.502-4.423 6.147-5.522 8.112-6.345z"></path>
        </symbol>
        <symbol id="icon-lya" viewBox="0 0 46 32">
            <path d="M0.271 0.54h6.84v18.449c0 2.926 1.319 4.667 2.392 5.392-1.117 0.981-4.502 1.848-7.051-0.248-1.495-1.238-2.18-3.297-2.18-5.215v-18.378zM42.993 15.877v-1.945h2.093v-6.789h-2.295c-0.888-4.093-4.502-7.134-8.819-7.134-4.977 0-9.030 4.066-9.030 9.078v15.841c1.407 0.203 3.113-0.027 4.546-1.238 1.503-1.238 2.181-3.288 2.181-5.215v-0.592h3.411v-6.789h-3.411v-2.060c0-3.059 4.59-3.059 4.59 0v6.816c0 5.003 4.044 9.078 9.030 9.078v-6.762c-1.275 0-2.295-1.034-2.295-2.289zM17.117 7.125v9.989c0 1.361-2.093 1.361-2.093 0v-9.989h-6.753v11.73c0 2.104 0.703 4.773 3.957 5.649 3.253 0.866 5.117-0.937 5.117-0.937-0.185 1.185-1.275 2.060-3.069 2.236-1.363 0.141-3.095-0.318-3.957-0.69v6.214c2.207 0.663 4.528 0.866 6.823 0.415 4.141-0.804 6.753-4.278 6.753-8.911v-15.752h-6.779v0.044z"></path>
        </symbol>
        <symbol id="icon-hooli" viewBox="0 0 94 32">
            <path d="M21.262 29.646l5.636 0.117c-1.942-0.671-3.826-1.489-5.636-2.452v2.335zM29.752 28.872v0.773l-2.855 0.117c5.371 1.824 10.285 2.072 13.934 1.051-2.928 0.029-6.739-0.379-11.080-1.941zM89.919 12.060c2.34 0 4.253-1.883 4.253-4.218s-1.898-3.576-4.253-3.576c-2.34 0-4.252 1.255-4.252 3.576s1.898 4.218 4.252 4.218zM85.652 29.646h8.52v-16.127h-8.52v16.127zM74.807 29.646h8.52v-28.503l-8.52 3.984v24.518zM70.246 12.22c-2.678-2.656-7.416-2.496-7.416-2.496s-4.753-0.161-7.416 2.496c-2.678 2.656-2.472 4.947-2.472 7.677s-0.206 5.006 2.472 7.662c2.678 2.656 7.416 2.496 7.416 2.496s4.753 0.161 7.416-2.496c2.678-2.656 2.472-4.933 2.472-7.662-0.015-2.744 0.191-5.035-2.472-7.677zM64.39 22.713c0 0.525-0.265 1.824-1.574 1.824s-1.574-1.299-1.574-1.824v-5.896c0-1.27 1.074-1.591 1.574-1.591s1.574 0.306 1.574 1.591v5.896zM48.763 12.22c-2.678-2.656-7.416-2.496-7.416-2.496s-4.738-0.161-7.416 2.496c-0.28 0.277-0.544 0.569-0.78 0.876-5.621-4.32-10.668-6.786-15.023-8.917v-3.021l-3.311 1.547c-8.005-3.225-13.096-2.656-14.317 0.015 0 0-3.664 4.787 9.093 16.17v10.756h8.52v-4.174c-0.956-0.613-1.913-1.27-2.855-1.985-2.178-1.635-4.032-3.152-5.65-4.583v-4.524c1.928 2.145 4.488 4.583 7.857 7.341l0.662 0.525v-4.349c0-1.007 0.25-2.656 1.589-2.656s1.56 1.007 1.56 2.189v7.107c2.649 1.781 5.488 3.225 8.49 4.32v-13.704c0-2.729-1.972-5.458-5.974-5.458-2.325-0.015-4.488 1.197-5.665 3.196v-7.925c6.165 3.050 12.345 6.786 14.7 8.508-1.501 2.131-1.368 4.101-1.368 6.378 0 2.729-0.206 5.006 2.472 7.662s7.416 2.496 7.416 2.496 4.753 0.16 7.416-2.496c2.678-2.656 2.457-4.933 2.457-7.662 0-2.7 0.221-4.991-2.457-7.633zM9.594 5.127v9.238c-7.166-7.954-5.724-11.092-5.179-11.544 1.986-1.664 5.518-1.168 9.476 0.306l-4.297 1.999zM42.921 22.713c0 0.525-0.265 1.824-1.574 1.824s-1.574-1.299-1.574-1.824v-5.896c0-1.27 1.074-1.591 1.574-1.591s1.574 0.306 1.574 1.591v5.896z"></path>
        </symbol>
        <symbol id="icon-line" viewBox="0 0 34 32">
            <path fill="#0d5c63" style="fill: var(--color1, #0d5c63)" d="M16.953 14.793c3.061 0 5.441-2.486 5.441-5.536s-2.494-5.423-5.555-5.423-5.441 2.486-5.441 5.423c0 3.051 2.494 5.536 5.555 5.536zM16.84 6.093c0.113 0 0.113 0 0 0 1.814 0 3.287 1.469 3.287 3.276s-1.474 3.164-3.287 3.164-3.174-1.469-3.174-3.164c0-1.808 1.474-3.276 3.174-3.276z"></path>
            <path fill="#0d5c63" style="fill: var(--color1, #0d5c63)" d="M33.73 14.115c-2.154-1.921-4.988-2.938-7.935-2.825h-0.907c-0.227 0.904-0.567 1.695-1.020 2.373 0.68-0.113 1.247-0.113 1.927-0.113 2.154-0.113 4.308 0.565 6.008 1.808v8.135h2.267v-9.039l-0.34-0.339z"></path>
            <path fill="#0d5c63" style="fill: var(--color1, #0d5c63)" d="M23.188 4.059c0.567-1.356 2.154-2.034 3.628-1.469 1.36 0.565 2.041 2.147 1.474 3.615-0.453 1.017-1.474 1.695-2.494 1.695-0.227 0-0.567 0-0.794-0.113 0.113 0.565 0.113 1.13 0.113 1.582v0.678c0.227 0 0.453 0.113 0.68 0.113 2.834 0 5.101-2.26 5.101-4.971 0-2.825-2.267-5.084-4.988-5.084-1.814 0-3.401 0.904-4.308 2.486 0.567 0.339 1.134 0.791 1.587 1.469z"></path>
            <path fill="#0d5c63" style="fill: var(--color1, #0d5c63)" d="M10.265 13.776c-0.453-0.678-0.794-1.469-1.020-2.373h-0.907c-2.947-0.113-5.781 0.904-7.935 2.712l-0.34 0.339v9.039h2.267v-8.135c1.814-1.243 3.854-1.921 6.008-1.808 0.68 0 1.36 0.113 1.927 0.226z"></path>
            <path fill="#0d5c63" style="fill: var(--color1, #0d5c63)" d="M8.338 10.048c0.227 0 0.453 0 0.68-0.113v-0.678c0-0.565 0-1.13 0.113-1.582-0.227 0.113-0.567 0.113-0.794 0.113-1.474 0-2.721-1.243-2.721-2.712s1.247-2.712 2.721-2.712c1.134 0 2.154 0.678 2.607 1.695 0.453-0.565 1.134-1.13 1.7-1.582-1.474-2.373-4.534-3.163-6.915-1.695s-3.174 4.519-1.7 6.892c0.907 1.469 2.494 2.373 4.308 2.373z"></path>
            <path fill="#0d5c63" style="fill: var(--color1, #0d5c63)" d="M26.249 20.894l-0.227-0.339c-2.267-2.486-5.441-3.954-8.842-3.841-3.401-0.113-6.688 1.356-8.956 3.841l-0.227 0.339v8.587c0 1.017 0.794 1.921 1.927 1.921h14.51c1.020 0 1.927-0.904 1.927-1.921v-8.587h-0.113zM23.982 29.141h-13.717v-7.457c1.814-1.808 4.308-2.712 6.915-2.712 2.494-0.113 4.988 0.904 6.802 2.712v7.457z"></path>
        </symbol>
        <symbol id="icon-stats" viewBox="0 0 55 32">
            <path fill="#0d5c63" style="fill: var(--color1, #0d5c63)" d="M49.315 14.036c-0.658 0.005-1.309 0.13-1.923 0.37l-6.56-5.468c0.161-0.596 0.276-1.215 0.276-1.866 0-3.861-3.048-6.964-6.839-6.964s-6.839 3.103-6.839 6.964c0 1.103 0.274 2.131 0.717 3.056l-7.958 9.577c-0.319-0.061-0.642-0.093-0.966-0.098-0.49 0-0.952 0.084-1.401 0.206l-7.012-7.14c0.123-0.454 0.205-0.925 0.205-1.423 0-3.087-2.44-5.571-5.471-5.571s-5.471 2.485-5.471 5.571c0 3.087 2.44 5.571 5.471 5.571 0.49 0 0.952-0.084 1.401-0.206l7.012 7.14c-0.131 0.463-0.2 0.942-0.205 1.423 0 3.087 2.44 5.571 5.472 5.571s5.471-2.485 5.471-5.571c0-0.66-0.131-1.281-0.336-1.869l7.969-9.588c0.621 0.184 1.264 0.315 1.942 0.315 1.080-0.006 2.142-0.274 3.1-0.783l6.563 5.468c-0.051 0.293-0.081 0.589-0.088 0.886 0 3.087 2.44 5.571 5.472 5.571s5.471-2.485 5.471-5.571c0-3.087-2.44-5.571-5.471-5.571z"></path>
        </symbol>
        <symbol id="icon-award" viewBox="0 0 24 32">
            <path fill="#0d5c63" style="fill: var(--color1, #0d5c63)" d="M6.043 22.663c-0.541-0.543-0.259-0.39-1.563-0.741-0.592-0.159-1.112-0.466-1.582-0.832l-2.823 6.952c-0.273 0.673 0.237 1.404 0.96 1.377l3.278-0.126 2.255 2.393c0.498 0.527 1.371 0.363 1.645-0.31l3.239-7.976c-0.675 0.377-1.423 0.599-2.197 0.599-1.213 0-2.353-0.474-3.211-1.336zM23.818 28.043l-2.823-6.952c-0.47 0.367-0.991 0.673-1.582 0.832-1.311 0.353-1.024 0.199-1.563 0.741-0.858 0.861-1.999 1.336-3.212 1.336-0.774 0-1.523-0.222-2.197-0.599l3.239 7.976c0.273 0.673 1.147 0.837 1.645 0.31l2.256-2.393 3.279 0.126c0.723 0.028 1.233-0.704 0.96-1.377zM16.364 21.249c0.951-0.972 1.060-0.888 2.414-1.259 0.864-0.237 1.54-0.928 1.771-1.811 0.465-1.775 0.345-1.561 1.615-2.859 0.633-0.647 0.88-1.59 0.648-2.474-0.465-1.774-0.465-1.526 0-3.302 0.231-0.884-0.016-1.827-0.648-2.474-1.27-1.299-1.149-1.085-1.615-2.859-0.231-0.884-0.907-1.574-1.771-1.811-1.735-0.476-1.526-0.351-2.797-1.651-0.633-0.647-1.556-0.9-2.42-0.663-1.734 0.475-1.492 0.476-3.229 0-0.864-0.237-1.787 0.016-2.42 0.663-1.27 1.299-1.061 1.175-2.796 1.651-0.864 0.237-1.54 0.928-1.771 1.811-0.465 1.774-0.345 1.561-1.615 2.859-0.633 0.647-0.88 1.59-0.648 2.474 0.465 1.773 0.465 1.525 0 3.301-0.231 0.884 0.016 1.827 0.648 2.474 1.27 1.299 1.149 1.084 1.615 2.859 0.231 0.884 0.907 1.574 1.771 1.811 1.393 0.381 1.496 0.321 2.413 1.259 0.823 0.842 2.106 0.993 3.095 0.364 0.396-0.252 0.855-0.386 1.323-0.386s0.928 0.134 1.323 0.386c0.989 0.629 2.271 0.478 3.094-0.364zM6.076 10.996c0-3.314 2.628-6.001 5.87-6.001s5.87 2.687 5.87 6.001c0 3.314-2.628 6.001-5.87 6.001s-5.87-2.687-5.87-6.001z"></path>
        </symbol>
        <symbol id="icon-briefcase" viewBox="0 0 37 32">
            <path d="M33.24 6.654h-3.957v-3.957c0-1.457-1.181-2.638-2.638-2.638v0h-15.827c-1.457 0-2.638 1.181-2.638 2.638v0 3.957h-3.957c-2.185 0-3.957 1.772-3.957 3.957v0 18.464c0 1.457 1.181 2.638 2.638 2.638h31.656c1.457 0 2.638-1.181 2.638-2.638v0-18.465c0-2.185-1.772-3.957-3.957-3.957v0zM10.818 2.697h15.827v3.957h-15.826v-3.957zM34.558 29.076h-31.654v-11.87h10.551v6.595h10.551v-6.595h10.552v11.871zM16.094 17.205h5.276v3.957h-5.276v-3.957zM2.905 14.567v-3.956c0-0.728 0.591-1.319 1.319-1.319v0h29.016c0.728 0 1.319 0.591 1.319 1.319v0 3.957h-31.655z"></path>
        </symbol>
        <symbol id="icon-icon2" viewBox="0 0 32 32">
            <path d="M30.8 6.326v-5.061c0-0.7-0.572-1.265-1.28-1.265h-27.040c-0.708 0-1.28 0.565-1.28 1.265v5.061c-0.668 0.040-1.2 0.589-1.2 1.26v5.204c0 0.005-0 0.012-0 0.018 0 1 0.212 1.95 0.594 2.808l-0.017-0.044c0.172 0.403 0.384 0.782 0.624 1.141v13.632c0.005 0.7 0.573 1.265 1.273 1.265 0.002 0 0.005 0 0.007-0h27.040c0.708 0 1.28-0.565 1.28-1.265v-13.632c0.244-0.36 0.453-0.743 0.624-1.141 0.38-0.881 0.576-1.818 0.576-2.782v-5.203c-0.004-0.674-0.532-1.223-1.197-1.261l-0.003-0zM4.080 2.845h23.84v3.477h-23.84v-3.477zM18.56 28.769h-5.12v-4.113h5.12v4.113zM27.936 28.769h-6.816v-5.377c-0.003-0.699-0.571-1.265-1.271-1.265-0.003 0-0.007 0-0.010 0h-7.68c-0.708 0-1.28 0.565-1.28 1.265v5.377h-6.8v-9.569c0.116 0.055 0.236 0.11 0.36 0.157 0.826 0.352 1.786 0.557 2.795 0.557 0.007 0 0.015 0 0.022-0h-0.001c0.003 0 0.007 0 0.012 0 1.638 0 3.151-0.537 4.372-1.445l-0.020 0.014c0.003-0.002 0.008-0.003 0.012-0.003s0.009 0.001 0.012 0.003l-0-0c0.477 0.353 0.997 0.647 1.548 0.873 0.826 0.352 1.786 0.557 2.795 0.557 0.007 0 0.015 0 0.022-0h-0.001c0.003 0 0.007 0 0.012 0 1.638 0 3.151-0.537 4.372-1.445l-0.020 0.014c0.003-0.002 0.008-0.003 0.012-0.003s0.009 0.001 0.012 0.003l-0-0c0.477 0.353 0.997 0.647 1.548 0.873 0.826 0.352 1.786 0.557 2.795 0.557 0.007 0 0.015 0 0.022-0h-0.001c0.976 0 1.92-0.185 2.816-0.557 0.12-0.052 0.24-0.103 0.36-0.159v9.57zM29.12 12.79c0 2.363-1.96 4.279-4.372 4.279-0.006 0-0.013 0-0.021 0-1.606 0-3.011-0.862-3.776-2.149l-0.011-0.020c-0.113-0.193-0.319-0.32-0.555-0.32-0 0-0 0-0.001 0h-0.024c-0.236 0.001-0.442 0.128-0.554 0.317l-0.002 0.003c-0.392 0.666-0.935 1.205-1.585 1.58l-0.021 0.011c-0.627 0.363-1.38 0.578-2.183 0.578-0.005 0-0.011 0-0.016-0h0.001c-0.006 0-0.014 0-0.021 0-1.602 0-3.003-0.859-3.768-2.141l-0.011-0.020c-0.117-0.198-0.329-0.329-0.572-0.329s-0.455 0.131-0.57 0.326l-0.002 0.003c-0.394 0.663-0.938 1.2-1.588 1.573l-0.021 0.011c-0.628 0.363-1.382 0.577-2.185 0.577-0.004 0-0.007 0-0.011 0h0.001c-2.412 0-4.372-1.917-4.372-4.279v-3.603c0-0.012 0.008-0.020 0.020-0.020h26.2c0.012 0 0.020 0.008 0.020 0.020v3.603z"></path>
        </symbol>
        <symbol id="icon-icon3" viewBox="0 0 40 32">
            <path d="M24.541 7.262h10.103v2.901h-10.103v-2.901zM24.541 14.515h10.103v2.902h-10.103v-2.902zM24.541 21.768h10.103v2.902h-10.103v-2.902z"></path>
            <path d="M37.53 0.009h-34.64c-0.765 0.001-1.499 0.307-2.040 0.851-0.523 0.526-0.846 1.251-0.846 2.051v26.111c0 0.77 0.305 1.507 0.846 2.051 0.521 0.524 1.243 0.849 2.040 0.851h34.64c0.798-0.001 1.519-0.326 2.040-0.85l0-0c0.523-0.526 0.846-1.251 0.846-2.051v-26.111c0-0.77-0.305-1.507-0.846-2.051-0.521-0.524-1.243-0.849-2.040-0.851h-0zM2.89 2.911h15.877v26.111h-15.877v-26.111zM21.654 29.022v-26.111h15.876l0.003 26.111h-15.88z"></path>
        </symbol>
        <symbol id="who-we-are-people" viewBox="0 0 32 32">
            <path fill-rule="evenodd" clip-rule="evenodd" d="M18.2367 8.77151C17.7729 9.09308 17.2497 9.31905 16.6976 9.43623C16.1456 9.55342 15.5757 9.55949 15.0212 9.45407C14.4668 9.34865 13.9389 9.13385 13.4684 8.82223C12.9979 8.5106 12.5941 8.10838 12.2807 7.63904C11.9673 7.1697 11.7505 6.64263 11.643 6.08861C11.5354 5.53458 11.5393 4.96468 11.6544 4.41218C11.7695 3.85967 11.9935 3.33562 12.3133 2.8706C12.6331 2.40559 13.0423 2.00893 13.517 1.70376C14.4544 1.08466 15.5986 0.861813 16.6998 1.08393C17.8009 1.30605 18.7693 1.95506 19.3933 2.88911C20.0173 3.82315 20.2462 4.96625 20.0298 6.06853C19.8135 7.17081 19.1696 8.14262 18.2388 8.77151H18.2367ZM17.0573 3.47176C16.8259 3.30528 16.5633 3.18706 16.2853 3.12415C16.0072 3.06124 15.7193 3.05493 15.4388 3.10558C15.1583 3.15622 14.8908 3.26281 14.6523 3.41897C14.4138 3.57514 14.2091 3.7777 14.0505 4.0146C13.8919 4.25149 13.7826 4.51788 13.7291 4.79789C13.6756 5.07791 13.679 5.36583 13.739 5.64451C13.7991 5.92319 13.9146 6.18694 14.0788 6.42004C14.2429 6.65315 14.4522 6.85086 14.6943 7.00139C15.162 7.28552 15.7214 7.37824 16.2558 7.26023C16.7902 7.14222 17.2585 6.82258 17.563 6.36789C17.8676 5.9132 17.985 5.35852 17.8908 4.81941C17.7966 4.2803 17.498 3.79833 17.0573 3.47389V3.47176ZM22.6036 3.53551C23.2164 3.12326 23.9539 2.93762 24.6889 3.01054C25.4239 3.08346 26.1105 3.41038 26.6304 3.93501C27.0009 4.30848 27.2741 4.76715 27.426 5.27079C27.578 5.77443 27.604 6.30766 27.5018 6.82371C27.3997 7.33975 27.1724 7.82284 26.8401 8.23061C26.5077 8.63838 26.0804 8.95837 25.5956 9.16251C25.0133 9.40598 24.3715 9.47011 23.7526 9.34669C23.1336 9.22328 22.5656 8.91794 22.1212 8.46976C21.7872 8.13405 21.5315 7.72865 21.3725 7.28259C21.2135 6.83653 21.155 6.36083 21.2013 5.88954C21.2476 5.41825 21.3975 4.96302 21.6403 4.55643C21.8831 4.14984 22.2127 3.80194 22.6057 3.53764L22.6036 3.53551ZM23.6236 6.95676C23.8231 7.15543 24.0933 7.2667 24.3749 7.2661C24.5143 7.2658 24.6523 7.23805 24.7809 7.18443C24.9096 7.13081 25.0265 7.05236 25.1249 6.95357C25.2232 6.85479 25.3012 6.73759 25.3543 6.60868C25.4073 6.47977 25.4345 6.34167 25.4342 6.20226C25.4339 6.06285 25.4062 5.92486 25.3525 5.79618C25.2989 5.66749 25.2205 5.55063 25.1217 5.45226C24.9238 5.25328 24.6564 5.13899 24.3758 5.13351C24.2357 5.13323 24.0968 5.16073 23.9674 5.21442C23.8379 5.26811 23.7204 5.34694 23.6216 5.44633C23.5228 5.54573 23.4447 5.66372 23.3918 5.7935C23.3388 5.92327 23.3122 6.06224 23.3133 6.20239C23.314 6.48539 23.4253 6.7569 23.6236 6.95889V6.95676ZM5.65455 25.3975H9.5008V27.5331H5.65455C4.98123 27.5271 4.3378 27.2542 3.8653 26.7745C3.39099 26.293 3.12533 25.6441 3.1258 24.9683V21.122C2.8397 21.1124 2.5585 21.045 2.29919 20.9237C2.03988 20.8025 1.80783 20.6299 1.61705 20.4165C1.41433 20.2112 1.25524 19.967 1.14934 19.6985C1.04343 19.4301 0.992909 19.1431 1.0008 18.8546V14.2179C1.00718 13.2149 1.40455 12.2565 2.1058 11.5446C2.80493 10.8413 3.75055 10.4396 4.7408 10.4333H8.6508C8.1234 11.0614 7.72612 11.788 7.48205 12.571H4.7408C4.30951 12.5834 3.89915 12.7597 3.5933 13.064C3.29287 13.3729 3.1251 13.787 3.1258 14.2179V18.9609H5.2508V24.9661C5.24587 25.024 5.25275 25.0823 5.27101 25.1375C5.28928 25.1926 5.31855 25.2435 5.35705 25.287C5.44247 25.353 5.54664 25.3902 5.65455 25.3933V25.3975ZM21.167 11.5468C20.8193 11.1957 20.4057 10.9167 19.9498 10.726C19.494 10.5353 19.0049 10.4365 18.5108 10.4354H13.2408C12.2502 10.4433 11.3029 10.8428 10.6058 11.5468C9.90455 12.2586 9.50718 13.217 9.5008 14.22V20.9733C9.4978 21.5531 9.71853 22.1118 10.1171 22.533C10.3081 22.7462 10.5402 22.9185 10.7994 23.0397C11.0587 23.161 11.3398 23.2286 11.6258 23.2385V28.1749C11.6238 28.5118 11.6885 28.8458 11.8161 29.1576C11.9438 29.4695 12.1319 29.7529 12.3696 29.9918C12.7521 30.3488 13.2344 30.5804 13.7508 30.6548H18.0008C18.5985 30.5763 19.1461 30.2797 19.5384 29.8219C19.9306 29.3642 20.1398 28.7776 20.1258 28.1749V23.2364C20.4119 23.2268 20.6931 23.1594 20.9524 23.0381C21.2117 22.9169 21.4438 22.7443 21.6346 22.5309C21.8371 22.3259 21.9961 22.082 22.102 21.814C22.2079 21.5459 22.2585 21.2592 22.2508 20.9711V14.2179C22.2523 13.2195 21.8633 12.2601 21.167 11.5446V11.5468ZM20.1258 21.0774H18.0008V28.1749C17.9987 28.2869 17.953 28.3937 17.8733 28.4724C17.837 28.5153 17.7913 28.5492 17.7396 28.5713C17.688 28.5935 17.6319 28.6032 17.5758 28.5999H14.1546C14.0435 28.5947 13.9384 28.5483 13.8598 28.4697C13.7812 28.3911 13.7347 28.2859 13.7296 28.1749V21.0774H11.6258V14.2179C11.6258 13.7865 11.7937 13.3721 12.0933 13.064C12.3992 12.7597 12.8095 12.5834 13.2408 12.571H18.5108C18.8327 12.5767 19.146 12.6762 19.4121 12.8574C19.6782 13.0386 19.8857 13.2936 20.0089 13.591C20.0898 13.7899 20.1296 14.0032 20.1258 14.2179V21.0774ZM26.0971 27.531H22.2508V25.3954H26.0758C26.1837 25.3924 26.2879 25.3552 26.3733 25.2891C26.4161 25.2473 26.4496 25.1969 26.4715 25.1413C26.4935 25.0856 26.5035 25.0259 26.5008 24.9661V18.9609H28.6258V14.2179C28.6265 13.787 28.4587 13.3729 28.1583 13.064C27.8524 12.7597 27.4421 12.5834 27.0108 12.571H24.2696C24.0256 11.788 23.6283 11.0613 23.1008 10.4333H27.0108C28.0012 10.4423 28.9481 10.8417 29.6458 11.5446C30.347 12.2565 30.7444 13.2149 30.7508 14.2179V18.8546C30.7508 19.4348 30.5319 19.9915 30.1367 20.4123C29.7414 20.8351 29.2017 21.088 28.6258 21.1199V24.9661C28.6258 25.644 28.3602 26.2921 27.8863 26.7724C27.4138 27.2521 26.7704 27.5249 26.0971 27.531ZM7.3758 2.99576C6.74346 2.99503 6.12531 3.18314 5.60057 3.536C5.07583 3.88885 4.66842 4.39037 4.43055 4.97626C4.19049 5.56195 4.12817 6.20536 4.25136 6.82623C4.37456 7.4471 4.67781 8.01797 5.1233 8.46764C5.56863 8.91678 6.13774 9.22298 6.75793 9.34712C7.37812 9.47126 8.02124 9.4077 8.60514 9.16456C9.18903 8.92142 9.68719 8.50975 10.036 7.98212C10.3848 7.45449 10.5684 6.83486 10.5633 6.20239C10.5633 5.35239 10.2276 4.53639 9.6283 3.93501C9.33323 3.63779 8.98233 3.40181 8.59577 3.24063C8.20921 3.07944 7.79462 2.99622 7.3758 2.99576ZM7.3758 7.27126C7.23565 7.27155 7.09684 7.24405 6.96739 7.19035C6.83793 7.13666 6.72041 7.05784 6.6216 6.95844C6.5228 6.85905 6.44468 6.74105 6.39176 6.61128C6.33885 6.48151 6.31218 6.34253 6.3133 6.20239C6.31385 5.92017 6.42577 5.64959 6.62473 5.44944C6.82368 5.24928 7.0936 5.13575 7.3758 5.13351C7.65714 5.13847 7.92548 5.25287 8.12386 5.45244C8.32223 5.652 8.43503 5.92102 8.4383 6.20239C8.43775 6.4846 8.32583 6.75519 8.12688 6.95534C7.92792 7.15549 7.658 7.26902 7.3758 7.27126Z" fill="#FF7B47"/>
        </symbol>
        <symbol id="who-we-are-speed" viewBox="0 0 32 32">
            <path d="M29.8154 10.3646L27.8167 13.3708C28.7806 15.2933 29.2525 17.4249 29.1901 19.5746C29.1277 21.7243 28.5329 23.825 27.4592 25.6883H4.93666C3.54106 23.2672 2.96277 20.4609 3.28751 17.6853C3.61226 14.9097 4.82277 12.3126 6.73956 10.2791C8.65636 8.2456 11.1774 6.88388 13.929 6.39581C16.6806 5.90775 19.5162 6.31934 22.0154 7.56956L25.0217 5.57081C21.9609 3.60816 18.3304 2.72869 14.7109 3.07308C11.0913 3.41747 7.69176 4.96581 5.05609 7.47045C2.42042 9.97509 0.700875 13.2913 0.172515 16.8886C-0.355844 20.486 0.337506 24.1566 2.14166 27.3133C2.42524 27.8045 2.83243 28.2129 3.32276 28.498C3.81309 28.7831 4.36949 28.9349 4.93666 28.9383H27.4429C28.0156 28.9406 28.5787 28.7915 29.0752 28.5061C29.5718 28.2208 29.9841 27.8093 30.2704 27.3133C31.7676 24.7197 32.519 21.7627 32.4416 18.769C32.3642 15.7752 31.461 12.8611 29.8317 10.3483L29.8154 10.3646ZM13.9067 21.4796C14.2085 21.7817 14.5669 22.0214 14.9615 22.185C15.356 22.3486 15.7789 22.4327 16.206 22.4327C16.6331 22.4327 17.056 22.3486 17.4506 22.185C17.8451 22.0214 18.2036 21.7817 18.5054 21.4796L27.7029 7.68331L13.9067 16.8808C13.6045 17.1826 13.3648 17.5411 13.2012 17.9356C13.0377 18.3302 12.9535 18.7531 12.9535 19.1802C12.9535 19.6073 13.0377 20.0302 13.2012 20.4247C13.3648 20.8193 13.6045 21.1777 13.9067 21.4796Z" fill="#FF7B47"/>
        </symbol>

        <symbol id="phone-icon" viewBox="0 0 73 72">
            <path d="M56.929 38.9947C56.5775 38.6426 56.16 38.3632 55.7004 38.1726C55.2408 37.982 54.7482 37.8839 54.2506 37.8839C53.7531 37.8839 53.2604 37.982 52.8008 38.1726C52.3413 38.3632 51.9238 38.6426 51.5722 38.9947L45.5335 45.0334C42.7339 44.1999 37.5097 42.3057 34.1987 38.9947C30.8876 35.6836 28.9934 30.4594 28.16 27.6598L34.1987 21.6211C34.5508 21.2696 34.8301 20.8521 35.0207 20.3925C35.2113 19.9329 35.3094 19.4403 35.3094 18.9427C35.3094 18.4452 35.2113 17.9525 35.0207 17.4929C34.8301 17.0333 34.5508 16.6159 34.1987 16.2643L19.0451 1.11076C18.6936 0.758646 18.2761 0.479298 17.8165 0.288701C17.3569 0.0981045 16.8642 0 16.3667 0C15.8692 0 15.3765 0.0981045 14.9169 0.288701C14.4573 0.479298 14.0398 0.758646 13.6883 1.11076L3.41418 11.3849C1.97459 12.8245 1.16387 14.802 1.19418 16.8212C1.28131 22.2159 2.70954 40.9533 17.4767 55.7204C32.2439 70.4876 50.9813 71.912 56.3797 72.003H56.4858C58.4861 72.003 60.3765 71.215 61.8085 69.783L72.0826 59.5088C72.4347 59.1573 72.7141 58.7398 72.9047 58.2802C73.0953 57.8207 73.1934 57.328 73.1934 56.8304C73.1934 56.3329 73.0953 55.8402 72.9047 55.3807C72.7141 54.9211 72.4347 54.5036 72.0826 54.1521L56.929 38.9947ZM56.4479 64.4224C51.72 64.3428 35.5435 63.0737 22.8335 50.3599C10.0818 37.6081 8.84674 21.3749 8.77097 16.7417L16.3667 9.14594L26.1635 18.9427L21.2651 23.8411C20.8198 24.2861 20.4924 24.835 20.3125 25.4382C20.1326 26.0414 20.1058 26.68 20.2346 27.2961C20.3256 27.7318 22.5494 38.0627 28.8381 44.3515C35.1268 50.6402 45.4578 52.864 45.8934 52.9549C46.5092 53.0874 47.1484 53.0627 47.7522 52.8833C48.356 52.7039 48.9049 52.3755 49.3485 51.9283L54.2506 47.0299L64.0474 56.8267L56.4479 64.4224Z" />
        </symbol>

        <symbol id="mark-map-icon" viewBox="0 0 73 72">
            <path d="M29.5 42C37.4967 42 44 35.721 44 28C44 20.279 37.4967 14 29.5 14C21.5032 14 15 20.279 15 28C15 35.721 21.5032 42 29.5 42ZM29.5 21C33.4984 21 36.75 24.1395 36.75 28C36.75 31.8605 33.4984 35 29.5 35C25.5016 35 22.25 31.8605 22.25 28C22.25 24.1395 25.5016 21 29.5 21Z" />
            <path d="M27.4338 70.3403C28.0367 70.7693 28.7591 71 29.5 71C30.2409 71 30.9633 70.7693 31.5662 70.3403C32.6492 69.577 58.103 51.2624 57.9997 28.4002C57.9997 12.7411 45.214 0 29.5 0C13.786 0 1.00031 12.7411 1.00031 28.3825C0.897002 51.2624 26.3508 69.577 27.4338 70.3403ZM29.5 7.10006C41.2882 7.10006 50.8748 16.6532 50.8748 28.418C50.9496 44.173 35.2427 58.3199 29.5 62.9598C23.7609 58.3163 8.05042 44.1659 8.12524 28.4002C8.12524 16.6532 17.7118 7.10006 29.5 7.10006Z" />
        </symbol>

        <symbol id="sent-icon" viewBox="0 0 73 72">
            <path d="M70.3484 2.16199C69.9592 1.75903 69.4674 1.48003 68.9308 1.35781C68.3943 1.23558 67.8354 1.27521 67.3198 1.47202L3.8615 25.4708C3.31422 25.6867 2.84305 26.0706 2.51056 26.5716C2.17807 27.0726 2 27.6669 2 28.2756C2 28.8844 2.17807 29.4787 2.51056 29.9797C2.84305 30.4807 3.31422 30.8646 3.8615 31.0805L31.5524 42.5999L42.6287 71.3984C42.8368 71.9426 43.1935 72.4115 43.6549 72.7473C44.1162 73.0832 44.6619 73.2712 45.2248 73.2883C45.8077 73.2759 46.3733 73.08 46.847 72.7266C47.3207 72.3732 47.6804 71.8787 47.8785 71.3084L70.9542 5.31183C71.1507 4.78108 71.1981 4.20317 71.0909 3.64548C70.9836 3.08779 70.7261 2.5733 70.3484 2.16199ZM45.2248 61.8889L37.1771 40.89L50.9937 26.5207L46.9266 22.291L32.9946 36.7802L12.9187 28.2906L63.4834 9.30162L45.2248 61.8889Z"/>
        </symbol>

        <symbol id="footer-facebook-icon" viewBox="0 0 24 24">
            <path d="M23.04 0H0.96C0.429 0 0 0.429 0 0.96V23.04C0 23.571 0.429 24 0.96 24H23.04C23.571 24 24 23.571 24 23.04V0.96C24 0.429 23.571 0 23.04 0ZM20.268 7.005H18.351C16.848 7.005 16.557 7.719 16.557 8.769V11.082H20.145L19.677 14.703H16.557V24H12.816V14.706H9.687V11.082H12.816V8.412C12.816 5.313 14.709 3.624 17.475 3.624C18.801 3.624 19.938 3.723 20.271 3.768V7.005H20.268Z" fill="#335BF5"/>
        </symbol>

        <symbol id="footer-instagram-icon" viewBox="0 0 24 24">
            <path d="M12.0016 5.84744C8.59659 5.84744 5.84859 8.59544 5.84859 12.0004C5.84859 15.4054 8.59659 18.1534 12.0016 18.1534C15.4066 18.1534 18.1546 15.4054 18.1546 12.0004C18.1546 8.59544 15.4066 5.84744 12.0016 5.84744ZM12.0016 15.9994C9.79959 15.9994 8.00259 14.2024 8.00259 12.0004C8.00259 9.79844 9.79959 8.00144 12.0016 8.00144C14.2036 8.00144 16.0006 9.79844 16.0006 12.0004C16.0006 14.2024 14.2036 15.9994 12.0016 15.9994ZM18.4066 4.16144C17.6116 4.16144 16.9696 4.80344 16.9696 5.59844C16.9696 6.39344 17.6116 7.03544 18.4066 7.03544C19.2016 7.03544 19.8436 6.39644 19.8436 5.59844C19.8438 5.40966 19.8068 5.22269 19.7347 5.04824C19.6625 4.87379 19.5567 4.71528 19.4232 4.5818C19.2897 4.44831 19.1312 4.34247 18.9568 4.27034C18.7823 4.19821 18.5954 4.1612 18.4066 4.16144ZM23.9956 12.0004C23.9956 10.3444 24.0106 8.70344 23.9176 7.05044C23.8246 5.13044 23.3866 3.42644 21.9826 2.02244C20.5756 0.615437 18.8746 0.180437 16.9546 0.0874372C15.2986 -0.00556279 13.6576 0.00943725 12.0046 0.00943725C10.3486 0.00943725 8.70759 -0.00556279 7.05459 0.0874372C5.13459 0.180437 3.43059 0.618437 2.02659 2.02244C0.619588 3.42944 0.184588 5.13044 0.0915876 7.05044C-0.0014124 8.70644 0.0135876 10.3474 0.0135876 12.0004C0.0135876 13.6534 -0.0014124 15.2974 0.0915876 16.9504C0.184588 18.8704 0.622588 20.5744 2.02659 21.9784C3.43359 23.3854 5.13459 23.8204 7.05459 23.9134C8.71059 24.0064 10.3516 23.9914 12.0046 23.9914C13.6606 23.9914 15.3016 24.0064 16.9546 23.9134C18.8746 23.8204 20.5786 23.3824 21.9826 21.9784C23.3896 20.5714 23.8246 18.8704 23.9176 16.9504C24.0136 15.2974 23.9956 13.6564 23.9956 12.0004ZM21.3556 19.0744C21.1366 19.6204 20.8726 20.0284 20.4496 20.4484C20.0266 20.8714 19.6216 21.1354 19.0756 21.3544C17.4976 21.9814 13.7506 21.8404 12.0016 21.8404C10.2526 21.8404 6.50259 21.9814 4.92459 21.3574C4.37859 21.1384 3.97059 20.8744 3.55059 20.4514C3.12759 20.0284 2.86359 19.6234 2.64459 19.0774C2.02059 17.4964 2.16159 13.7494 2.16159 12.0004C2.16159 10.2514 2.02059 6.50144 2.64459 4.92344C2.86359 4.37744 3.12759 3.96944 3.55059 3.54944C3.97359 3.12944 4.37859 2.86244 4.92459 2.64344C6.50259 2.01944 10.2526 2.16044 12.0016 2.16044C13.7506 2.16044 17.5006 2.01944 19.0786 2.64344C19.6246 2.86244 20.0326 3.12644 20.4526 3.54944C20.8756 3.97244 21.1396 4.37744 21.3586 4.92344C21.9826 6.50144 21.8416 10.2514 21.8416 12.0004C21.8416 13.7494 21.9826 17.4964 21.3556 19.0744Z" fill="#E61F5A"/>
        </symbol>

        <symbol id="footer-twitter-icon" viewBox="0 0 24 20">
            <path d="M24.0004 2.46548C23.1188 2.85141 22.1594 3.12917 21.1711 3.23735C22.1971 2.61879 22.9655 1.64156 23.332 0.489007C22.3692 1.07022 21.3145 1.47778 20.2146 1.6936C19.7549 1.19488 19.1989 0.797581 18.5813 0.526453C17.9636 0.255325 17.2976 0.116179 16.6247 0.117688C13.902 0.117688 11.7123 2.3573 11.7123 5.10564C11.7123 5.49158 11.7584 5.87752 11.8333 6.24884C7.7565 6.03248 4.12048 4.05601 1.7032 1.0299C1.26274 1.79335 1.03193 2.66261 1.03477 3.54727C1.03477 5.27814 1.902 6.80435 3.22444 7.70195C2.44511 7.6708 1.68402 7.45342 1.00308 7.06749V7.12889C1.00308 9.5527 2.69143 11.5613 4.94161 12.0233C4.51912 12.1347 4.08449 12.1916 3.64797 12.1929C3.32817 12.1929 3.02565 12.1607 2.72024 12.1168C3.34257 14.0933 5.15482 15.5289 7.3128 15.5757C5.62444 16.9177 3.50968 17.7071 1.2134 17.7071C0.801397 17.7071 0.421085 17.6925 0.0263672 17.6457C2.20452 19.0637 4.78891 19.8824 7.5721 19.8824C16.6074 19.8824 21.5514 12.2864 21.5514 5.69332C21.5514 5.47696 21.5514 5.2606 21.537 5.04424C22.4936 4.33377 23.332 3.45371 24.0004 2.46548Z" fill="#21A6DF"/>
        </symbol>

        <symbol id="footer-youtube-icon" viewBox="0 0 24 18">
            <path d="M23.4699 2.93166C23.3335 2.3987 23.0663 1.91276 22.6951 1.52249C22.324 1.13221 21.8619 0.851291 21.355 0.707834C19.4884 0.176636 11.9879 0.176636 11.9879 0.176636C11.9879 0.176636 4.48729 0.176636 2.62071 0.707834C2.11385 0.851291 1.65172 1.13221 1.28057 1.52249C0.90941 1.91276 0.642248 2.3987 0.50582 2.93166C0.157288 4.93335 -0.0118455 6.96501 0.000644257 8.99993C-0.0118455 11.0348 0.157288 13.0665 0.50582 15.0682C0.642248 15.6012 0.90941 16.0871 1.28057 16.4774C1.65172 16.8676 2.11385 17.1486 2.62071 17.292C4.48729 17.8232 11.9879 17.8232 11.9879 17.8232C11.9879 17.8232 19.4884 17.8232 21.355 17.292C21.8619 17.1486 22.324 16.8676 22.6951 16.4774C23.0663 16.0871 23.3335 15.6012 23.4699 15.0682C23.8184 13.0665 23.9876 11.0348 23.9751 8.99993C23.9876 6.96501 23.8184 4.93335 23.4699 2.93166ZM9.59041 12.7813V5.21852L15.8152 8.99993L9.59041 12.7813Z" fill="#E42F08"/>
        </symbol>




        <!-- fill="#E42F08" -->

    </defs>
</svg>
